<svg width="667" height="79" viewBox="0 0 667 79" fill="none" xmlns="http://www.w3.org/2000/svg">
<path d="M18.5179 66.2511C18.5179 67.9436 18.8997 69.0606 19.6633 69.6023C20.4588 70.1439 22.0815 70.4147 24.5314 70.4147C32.1677 70.4147 38.4517 68.8068 43.3834 65.591C50.956 60.6488 54.7423 52.2031 54.7423 40.2539C54.7423 29.591 51.6242 21.5684 45.3879 16.1862C40.0426 11.5825 32.9631 9.28068 24.1496 9.28068C21.9542 9.28068 20.4588 9.53456 19.6633 10.0423C18.8997 10.5501 18.5179 11.6671 18.5179 13.3935V66.2511ZM0 72.3949C3.56358 71.9887 5.88627 71.3117 6.96808 70.3639C8.04988 69.3822 8.59078 66.9281 8.59078 63.0014V16.7447C8.59078 12.9535 8.06579 10.5162 7.0158 9.433C5.96582 8.34979 3.62722 7.67278 0 7.40197V5.4725H26.3451C35.2222 5.4725 42.7312 7.02962 48.872 10.1439C59.9445 15.7292 65.4808 25.7151 65.4808 40.1016C65.4808 45.2807 64.4786 50.2059 62.474 54.8773C60.5014 59.5487 57.5105 63.4922 53.5015 66.708C50.956 68.7391 48.3152 70.2793 45.5789 71.3286C40.5835 73.292 34.4427 74.2736 27.1564 74.2736H0V72.3949Z" fill="black"/>
<path d="M63.221 72.3949C66.8164 71.9887 69.1391 71.3117 70.1891 70.3639C71.2709 69.3822 71.8118 66.9281 71.8118 63.0014V16.7447C71.8118 13.055 71.2868 10.6516 70.2368 9.53456C69.1868 8.38364 66.8482 7.67278 63.221 7.40197V5.4725H115.148L115.482 20.4006H113C112.173 15.7969 110.932 12.8181 109.277 11.464C107.623 10.11 103.932 9.433 98.2046 9.433H84.9366C83.5048 9.433 82.6139 9.68688 82.2639 10.1946C81.9457 10.6685 81.7867 11.5825 81.7867 12.9365V36.141H96.8205C100.989 36.141 103.645 35.481 104.791 34.1608C105.936 32.8406 106.859 30.1664 107.559 26.1382H109.85V50.2059H107.559C106.827 46.1777 105.889 43.5205 104.743 42.2341C103.598 40.914 100.957 40.2539 96.8205 40.2539H81.7867V65.9972C81.7867 68.0621 82.3912 69.2807 83.6003 69.653C84.8412 70.0254 88.5161 70.2116 94.6251 70.2116C101.243 70.2116 106.127 69.4499 109.277 67.9267C112.427 66.3695 115.259 62.6291 117.772 56.7052H120.493L116.054 74.2736H63.221V72.3949Z" fill="black"/>
<path d="M159.244 24.3611C159.244 17.9972 156.667 13.6305 151.512 11.2609C148.744 9.97461 145.244 9.33145 141.012 9.33145C139.008 9.33145 137.767 9.55148 137.29 9.99154C136.844 10.3977 136.621 11.3286 136.621 12.7842V39.8984C138.371 40.0677 139.517 40.1693 140.058 40.2031C140.599 40.237 141.124 40.2539 141.633 40.2539C146.119 40.2539 149.651 39.5769 152.228 38.2229C156.905 35.7518 159.244 31.1312 159.244 24.3611ZM118.533 72.3949C122.256 72.0226 124.578 71.244 125.501 70.0592C126.424 68.8406 126.885 66.0818 126.885 61.7828V16.7447C126.885 13.1227 126.36 10.7362 125.31 9.58533C124.292 8.43441 122.033 7.70663 118.533 7.40197V5.4725H144.305C152.578 5.4725 158.91 7.18195 163.301 10.6008C167.691 14.0197 169.887 18.5219 169.887 24.1072C169.887 31.1819 167.453 36.3103 162.585 39.4922C157.717 42.6742 151.623 44.2652 144.305 44.2652C143.255 44.2652 141.903 44.2482 140.249 44.2144C138.626 44.1467 137.417 44.1128 136.621 44.1128V63.0014C136.621 66.9281 137.178 69.3992 138.292 70.4147C139.437 71.4302 141.967 72.0903 145.88 72.3949V74.2736H118.533V72.3949Z" fill="black"/>
<path d="M168.554 72.3949C172.15 71.9887 174.472 71.3117 175.522 70.3639C176.604 69.3822 177.145 66.9281 177.145 63.0014V16.7447C177.145 13.055 176.62 10.6516 175.57 9.53456C174.52 8.38364 172.182 7.67278 168.554 7.40197V5.4725H220.481L220.815 20.4006H218.333C217.506 15.7969 216.265 12.8181 214.61 11.464C212.956 10.11 209.265 9.433 203.538 9.433H190.27C188.838 9.433 187.947 9.68688 187.597 10.1946C187.279 10.6685 187.12 11.5825 187.12 12.9365V36.141H202.154C206.322 36.141 208.979 35.481 210.124 34.1608C211.27 32.8406 212.192 30.1664 212.892 26.1382H215.183V50.2059H212.892C212.16 46.1777 211.222 43.5205 210.076 42.2341C208.931 40.914 206.29 40.2539 202.154 40.2539H187.12V65.9972C187.12 68.0621 187.725 69.2807 188.934 69.653C190.174 70.0254 193.849 70.2116 199.958 70.2116C206.576 70.2116 211.461 69.4499 214.61 67.9267C217.76 66.3695 220.592 62.6291 223.106 56.7052H225.826L221.388 74.2736H168.554V72.3949Z" fill="black"/>
<path d="M224.398 72.3949C228.439 71.9549 231.032 70.9901 232.178 69.5007C233.323 67.9774 233.896 64.4739 233.896 58.9901V13.1396L232.559 11.464C231.128 9.66996 229.903 8.56982 228.885 8.16361C227.898 7.72355 226.403 7.46968 224.398 7.40197V5.4725H241.15L278.806 55.5374V20.756C278.806 15.0353 278.011 11.3117 276.42 9.58533C275.37 8.46827 273.047 7.74048 269.452 7.40197V5.4725H292.409V7.40197C288.686 7.80818 286.204 8.77292 284.963 10.2962C283.722 11.8195 283.102 15.3061 283.102 20.756V75.4922H281.431L238.191 18.4711V58.9901C238.191 64.677 238.971 68.3836 240.53 70.11C241.548 71.2271 243.823 71.9887 247.355 72.3949V74.2736H224.398V72.3949Z" fill="black"/>
<path d="M310.119 66.2511C310.119 67.9436 310.501 69.0606 311.264 69.6023C312.06 70.1439 313.683 70.4147 316.132 70.4147C323.769 70.4147 330.053 68.8068 334.984 65.591C342.557 60.6488 346.343 52.2031 346.343 40.2539C346.343 29.591 343.225 21.5684 336.989 16.1862C331.644 11.5825 324.564 9.28068 315.751 9.28068C313.555 9.28068 312.06 9.53456 311.264 10.0423C310.501 10.5501 310.119 11.6671 310.119 13.3935V66.2511ZM291.601 72.3949C295.165 71.9887 297.487 71.3117 298.569 70.3639C299.651 69.3822 300.192 66.9281 300.192 63.0014V16.7447C300.192 12.9535 299.667 10.5162 298.617 9.433C297.567 8.34979 295.228 7.67278 291.601 7.40197V5.4725H317.946C326.823 5.4725 334.332 7.02962 340.473 10.1439C351.546 15.7292 357.082 25.7151 357.082 40.1016C357.082 45.2807 356.08 50.2059 354.075 54.8773C352.102 59.5487 349.112 63.4922 345.102 66.708C342.557 68.7391 339.916 70.2793 337.18 71.3286C332.184 73.292 326.044 74.2736 318.757 74.2736H291.601V72.3949Z" fill="black"/>
<path d="M355.831 72.3949C359.427 71.9887 361.749 71.3117 362.799 70.3639C363.881 69.3822 364.422 66.9281 364.422 63.0014V16.7447C364.422 13.055 363.897 10.6516 362.847 9.53456C361.797 8.38364 359.458 7.67278 355.831 7.40197V5.4725H407.758L408.092 20.4006H405.61C404.783 15.7969 403.542 12.8181 401.887 11.464C400.233 10.11 396.542 9.433 390.815 9.433H377.547C376.115 9.433 375.224 9.68688 374.874 10.1946C374.556 10.6685 374.397 11.5825 374.397 12.9365V36.141H389.431C393.599 36.141 396.256 35.481 397.401 34.1608C398.546 32.8406 399.469 30.1664 400.169 26.1382H402.46V50.2059H400.169C399.437 46.1777 398.499 43.5205 397.353 42.2341C396.208 40.914 393.567 40.2539 389.431 40.2539H374.397V65.9972C374.397 68.0621 375.001 69.2807 376.21 69.653C377.451 70.0254 381.126 70.2116 387.235 70.2116C393.853 70.2116 398.737 69.4499 401.887 67.9267C405.037 66.3695 407.869 62.6291 410.383 56.7052H413.103L408.664 74.2736H355.831V72.3949Z" fill="black"/>
<path d="M411.675 72.3949C415.716 71.9549 418.309 70.9901 419.454 69.5007C420.6 67.9774 421.173 64.4739 421.173 58.9901V13.1396L419.836 11.464C418.404 9.66996 417.179 8.56982 416.161 8.16361C415.175 7.72355 413.68 7.46968 411.675 7.40197V5.4725H428.427L466.083 55.5374V20.756C466.083 15.0353 465.288 11.3117 463.697 9.58533C462.647 8.46827 460.324 7.74048 456.729 7.40197V5.4725H479.685V7.40197C475.963 7.80818 473.481 8.77292 472.24 10.2962C470.999 11.8195 470.379 15.3061 470.379 20.756V75.4922H468.708L425.468 18.4711V58.9901C425.468 64.677 426.248 68.3836 427.807 70.11C428.825 71.2271 431.1 71.9887 434.631 72.3949V74.2736H411.675V72.3949Z" fill="black"/>
<path d="M509.443 4.25388C512.975 4.25388 516.602 4.81241 520.325 5.92948C524.047 7.04654 526.132 7.60508 526.577 7.60508C527.5 7.60508 528.375 7.33427 529.202 6.79267C530.029 6.25106 530.602 5.4048 530.92 4.25388H532.972L533.879 27.6107H531.636C530.332 22.9732 528.629 19.2327 526.529 16.3893C522.52 11.0409 517.127 8.36671 510.35 8.36671C503.509 8.36671 497.909 11.244 493.55 16.9986C489.223 22.7532 487.059 30.6742 487.059 40.7616C487.059 50.0367 489.334 57.4499 493.884 63.0014C498.466 68.519 504.257 71.2779 511.257 71.2779C516.316 71.2779 520.977 69.9915 525.241 67.4189C527.691 65.9633 530.379 63.763 533.306 60.8181L535.12 62.7475C532.956 65.6587 530.268 68.2144 527.054 70.4147C521.582 74.1382 515.648 76 509.252 76C498.752 76 490.416 72.4288 484.244 65.2863C478.548 58.6855 475.701 50.4429 475.701 40.5585C475.701 30.4372 478.707 21.9408 484.721 15.0691C491.053 7.85896 499.293 4.25388 509.443 4.25388Z" fill="black"/>
<path d="M536.126 72.3949C540.103 72.0903 542.681 71.464 543.858 70.5162C545.035 69.5346 545.624 67.0296 545.624 63.0014V16.7447C545.624 12.9196 545.035 10.4654 543.858 9.38223C542.681 8.26516 540.103 7.60508 536.126 7.40197V5.4725H565.048V7.40197C561.071 7.60508 558.494 8.26516 557.317 9.38223C556.14 10.4654 555.551 12.9196 555.551 16.7447V63.0014C555.551 67.0296 556.14 69.5346 557.317 70.5162C558.494 71.464 561.071 72.0903 565.048 72.3949V74.2736H536.126V72.3949Z" fill="black"/>
<path d="M564.289 72.3949C567.884 71.9887 570.207 71.3117 571.257 70.3639C572.339 69.3822 572.879 66.9281 572.879 63.0014V16.7447C572.879 13.055 572.354 10.6516 571.304 9.53456C570.254 8.38364 567.916 7.67278 564.289 7.40197V5.4725H616.215L616.549 20.4006H614.068C613.24 15.7969 611.999 12.8181 610.345 11.464C608.69 10.11 604.999 9.433 599.272 9.433H586.004C584.572 9.433 583.682 9.68688 583.332 10.1946C583.013 10.6685 582.854 11.5825 582.854 12.9365V36.141H597.888C602.056 36.141 604.713 35.481 605.859 34.1608C607.004 32.8406 607.927 30.1664 608.627 26.1382H610.918V50.2059H608.627C607.895 46.1777 606.956 43.5205 605.811 42.2341C604.665 40.914 602.024 40.2539 597.888 40.2539H582.854V65.9972C582.854 68.0621 583.459 69.2807 584.668 69.653C585.909 70.0254 589.584 70.2116 595.693 70.2116C602.311 70.2116 607.195 69.4499 610.345 67.9267C613.495 66.3695 616.327 62.6291 618.84 56.7052H621.561L617.122 74.2736H564.289V72.3949Z" fill="black"/>
<path d="M625.335 53.354C626.989 58.0254 628.93 61.7489 631.157 64.5247C635.039 69.3653 639.86 71.7856 645.619 71.7856C648.737 71.7856 651.425 70.7363 653.684 68.6375C655.975 66.5388 657.121 63.6107 657.121 59.8533C657.121 56.4683 655.975 53.5233 653.684 51.0183C652.189 49.4274 649.039 47.0409 644.234 43.859L635.882 38.3244C633.369 36.6319 631.364 34.9224 629.869 33.1961C627.101 29.9126 625.717 26.2905 625.717 22.33C625.717 17.0832 627.355 12.7165 630.632 9.2299C633.91 5.7433 638.253 4 643.662 4C645.889 4 648.562 4.59238 651.68 5.77715C654.83 6.92807 656.627 7.50353 657.073 7.50353C658.282 7.50353 659.109 7.19887 659.555 6.58956C660.032 5.98025 660.398 5.11707 660.652 4H662.657L664.805 26.1382H662.466C660.875 19.4697 658.314 14.8152 654.782 12.1749C651.282 9.53456 647.814 8.21439 644.378 8.21439C641.705 8.21439 639.366 9.06065 637.362 10.7532C635.389 12.4118 634.403 14.7306 634.403 17.7094C634.403 20.3836 635.166 22.6685 636.694 24.5642C638.221 26.4937 640.591 28.5078 643.805 30.6065L652.396 36.2426C657.773 39.763 661.559 42.9958 663.755 45.9408C665.918 48.9196 667 52.4401 667 56.5021C667 61.952 665.059 66.5049 661.177 70.1608C657.327 73.8166 652.396 75.6446 646.382 75.6446C643.359 75.6446 640.194 75.0353 636.885 73.8166C633.607 72.598 631.73 71.9887 631.253 71.9887C630.107 71.9887 629.328 72.3611 628.914 73.1058C628.532 73.8505 628.278 74.646 628.151 75.4922H626.003L623.092 53.354H625.335Z" fill="black"/>
</svg>
