<svg width="667" height="79" viewBox="0 0 667 79" fill="none" xmlns="http://www.w3.org/2000/svg">
<g clip-path="url(#clip0_257_1899)">
<path d="M0 77.44V2.365H15.225V77.44H0Z" fill="black"/>
<path d="M22.6628 77.44V2.365H38.0978L63.0878 44.26C65.5028 48.355 68.3378 54.76 68.3378 54.76H68.5478C68.5478 54.76 68.1278 46.99 68.1278 41.74V2.365H83.1428V77.44H68.4428L42.8228 35.965C40.4078 31.975 37.4678 25.57 37.4678 25.57H37.2578C37.2578 25.57 37.6778 33.445 37.6778 38.695V77.44H22.6628Z" fill="black"/>
<path d="M119.53 79.12C99.1602 79.12 87.6102 70.09 87.0852 54.235H101.995C103.045 63.265 108.19 66.835 118.9 66.835C126.67 66.835 133.495 64.105 133.495 57.175C133.495 49.825 126.355 48.355 114.91 45.73C101.47 42.685 89.1852 39.115 89.1852 23.47C89.1852 8.665 101.26 1 117.955 1C134.86 1 145.78 9.295 146.935 24.415H132.34C131.5 16.855 125.62 13.075 117.85 13.075C109.66 13.075 104.305 16.54 104.305 21.895C104.305 27.985 109.555 29.77 120.685 32.185C136.12 35.545 148.72 39.22 148.72 55.39C148.72 70.615 136.435 79.12 119.53 79.12Z" fill="black"/>
<path d="M146.55 15.175V2.365H206.925V15.175H184.35V77.44H169.125V15.175H146.55Z" fill="black"/>
<path d="M210.424 77.44V2.365H244.864C259.354 2.365 269.014 10.765 269.014 23.26C269.014 32.08 264.919 38.8 255.259 41.425V41.74C262.189 43.735 265.759 47.725 266.704 56.86C267.754 67.465 267.334 75.55 269.959 76.705V77.44H255.364C253.474 76.6 253.264 68.2 252.634 60.115C252.004 51.925 247.384 47.305 237.934 47.305H225.649V77.44H210.424ZM225.649 14.65V35.545H241.819C250.114 35.545 254.209 31.24 254.209 25.255C254.209 19.165 250.324 14.65 242.239 14.65H225.649Z" fill="black"/>
<path d="M304.11 78.7C284.685 78.7 274.5 69.565 274.5 53.29V2.365H289.725V53.29C289.725 61.06 293.61 66.52 303.795 66.52C313.455 66.52 317.97 60.85 317.97 53.08V2.365H333.195V53.29C333.195 69.355 323.325 78.7 304.11 78.7Z" fill="black"/>
<path d="M339.939 77.44V2.365H361.359L371.964 40.06C374.589 49.51 376.689 60.325 376.689 60.325H376.899C376.899 60.325 378.894 49.51 381.519 40.06L392.124 2.365H413.859V77.44H399.684V34.39C399.684 28.3 400.314 18.85 400.314 18.85H400.104C400.104 18.85 398.424 27.67 396.849 33.13L383.934 77.44H369.339L356.739 33.13C355.164 27.67 353.484 18.85 353.484 18.85H353.274C353.274 18.85 353.904 28.3 353.904 34.39V77.44H339.939Z" fill="black"/>
<path d="M421.257 77.44V2.365H476.487V15.175H436.482V31.975H471.552V44.47H436.482V64.735H476.802V77.44H421.257Z" fill="black"/>
<path d="M482.066 77.44V2.365H497.501L522.491 44.26C524.906 48.355 527.741 54.76 527.741 54.76H527.951C527.951 54.76 527.531 46.99 527.531 41.74V2.365H542.547V77.44H527.846L502.226 35.965C499.811 31.975 496.871 25.57 496.871 25.57H496.661C496.661 25.57 497.081 33.445 497.081 38.695V77.44H482.066Z" fill="black"/>
<path d="M545.964 15.175V2.365H606.339V15.175H583.764V77.44H568.539V15.175H545.964Z" fill="black"/>
<path d="M637.898 79.12C617.528 79.12 605.978 70.09 605.453 54.235H620.363C621.413 63.265 626.558 66.835 637.268 66.835C645.038 66.835 651.863 64.105 651.863 57.175C651.863 49.825 644.723 48.355 633.278 45.73C619.838 42.685 607.553 39.115 607.553 23.47C607.553 8.665 619.628 1 636.323 1C653.228 1 664.148 9.295 665.303 24.415H650.708C649.868 16.855 643.988 13.075 636.218 13.075C628.028 13.075 622.673 16.54 622.673 21.895C622.673 27.985 627.923 29.77 639.053 32.185C654.488 35.545 667.088 39.22 667.088 55.39C667.088 70.615 654.803 79.12 637.898 79.12Z" fill="black"/>
</g>
<defs>
<clipPath id="clip0_257_1899">
<rect width="667" height="79" fill="white"/>
</clipPath>
</defs>
</svg>
