<svg width="667" height="79" viewBox="0 0 667 79" fill="none" xmlns="http://www.w3.org/2000/svg">
<path d="M48.6185 73.2026C45.9537 73.2026 43.6365 69.7094 41.6668 62.7232C40.9137 60.059 39.9723 55.3966 38.8427 48.736C35.8882 49.1504 32.0213 49.8905 27.242 50.9562L15.6848 53.3984C14.2365 57.2764 11.76 62.9453 8.25515 70.4051C7.32826 72.0629 6.06826 72.8917 4.47516 72.8917C3.31654 72.8917 2.27379 72.4625 1.34689 71.604C0.448965 70.7455 0 69.6798 0 68.4069C0 66.986 2.18689 61.5835 6.56068 52.1995C6.06826 51.4298 5.82206 50.5418 5.82206 49.5353C5.82206 47.1375 7.24136 45.5981 10.08 44.9173C13.382 38.5823 17.5531 31.3001 22.5931 23.0706C29.4579 11.8512 33.7303 6.24148 35.4103 6.24148C37.6985 6.24148 39.2627 7.86963 40.1027 11.1259L42.8399 26.0456L49.3137 56.9063L51.7902 63.9221C52.6302 66.32 53.0502 67.9185 53.0502 68.7178C53.0502 69.9907 52.6013 71.0564 51.7033 71.9148C50.8054 72.7733 49.7771 73.2026 48.6185 73.2026ZM33.2813 22.4489L20.8551 42.9191C24.3599 42.0014 29.6751 40.8913 36.8006 39.5888L33.2813 22.4489Z" fill="black"/>
<path d="M100.072 72.3589C98.9718 72.3589 97.9435 71.8852 96.9877 70.938C87.4001 61.2579 76.7408 54.7453 65.0098 51.4002L65.3574 60.1034L65.5746 68.851C65.5746 70.1535 65.1546 71.234 64.3146 72.0925C63.5036 72.9805 62.4753 73.4246 61.2298 73.4246C59.9843 73.4246 58.9415 72.9805 58.1015 72.0925C57.2905 71.234 56.885 70.1535 56.885 68.851C56.885 66.5124 56.7691 63.0341 56.5374 58.4161C56.3346 53.7685 56.2333 50.2753 56.2333 47.9367C56.2333 45.2133 56.5229 41.1577 57.1022 35.7701C57.6815 30.3824 57.9712 26.3416 57.9712 23.6478C57.9712 22.1381 57.8264 19.9031 57.5367 16.9428C57.276 13.9826 57.1457 11.7476 57.1457 10.2378C57.1457 8.55049 57.6091 7.07036 58.536 5.79745C59.6367 4.22851 61.1574 3.51805 63.0981 3.66606L73.5691 4.50973C77.5374 5.01298 80.8829 6.00466 83.6056 7.48479C95.3366 13.8494 101.202 21.62 101.202 30.7968C101.202 35.2964 99.2035 39.278 95.2063 42.7415C91.9911 45.5241 87.9794 47.6407 83.1711 49.0912C92.1794 54.0349 98.9139 59.2449 103.375 64.7214C104.128 65.6687 104.504 66.6752 104.504 67.7409C104.504 68.9842 104.055 70.0647 103.157 70.9824C102.288 71.9 101.26 72.3589 100.072 72.3589ZM72.396 13.6569L65.9657 13.1241L66.4001 18.497C66.6029 20.6876 66.7043 22.4785 66.7043 23.8698C66.7043 26.238 66.516 29.1835 66.1395 32.7062L65.227 41.5426C65.6326 41.5426 66.2553 41.5574 67.0953 41.587C67.9643 41.6166 68.616 41.6314 69.0505 41.6314C76.4367 41.6314 81.9691 40.6249 85.6477 38.6119C87.2697 37.6942 88.776 36.4953 90.1663 35.0152C91.7015 33.3575 92.469 31.9513 92.469 30.7968C92.469 26.6821 90.1808 22.8485 85.6042 19.2962C81.4042 16.0399 77.0015 14.1602 72.396 13.6569Z" fill="black"/>
<path d="M144.414 15.7883C143.036 15.7883 135.985 14.7648 132.424 14.8114H129.339C129.426 18.8966 129.817 25.5276 130.512 34.7044C131.149 43.2595 131.468 49.9053 131.468 54.6417C131.468 55.6778 131.569 57.2468 131.772 59.3485C131.975 61.4503 132.076 63.0341 132.076 64.0998C132.076 66.1127 131.758 67.8445 131.12 69.295C130.309 71.2488 129.049 72.2257 127.34 72.2257C126.182 72.2257 125.139 71.8112 124.212 70.9824C123.285 70.1535 122.822 69.0878 122.822 67.7853C122.822 67.3412 122.894 66.6752 123.039 65.7871C123.184 64.899 123.256 64.233 123.256 63.7889C123.256 62.3384 123.155 60.1626 122.952 57.2616C122.778 54.3605 122.691 52.1699 122.691 50.6898C122.691 46.4566 122.358 40.5065 121.692 32.8394C120.997 24.5507 120.606 18.6006 120.519 14.9891L116.565 15.0335C110.222 15.0335 105.24 14.5598 101.619 13.6125C99.2729 12.9909 98.0998 11.5255 98.0998 9.21655C98.0998 8.00284 98.4763 6.93715 99.2294 6.01946C100.098 4.98337 101.214 4.50973 102.575 4.59854C103.589 4.65775 105.906 4.92417 109.527 5.39781C112.423 5.75304 114.769 5.93066 116.565 5.93066C118.303 5.93066 120.939 5.90105 124.473 5.84185C128.007 5.75304 130.642 5.70864 132.38 5.70864C135.994 5.70864 142.831 6.68552 144.414 6.68552C145.659 6.68552 146.702 7.12956 147.542 8.01764C148.382 8.87612 148.802 9.95661 148.802 11.2591C148.802 12.532 148.382 13.6125 147.542 14.5006C146.702 15.3591 145.659 15.7883 144.414 15.7883Z" fill="black"/>
<path d="M188.891 16.5432C187.037 16.5432 184.705 16.3508 181.896 15.9659L174.9 15.0335C174.234 23.6478 173.901 31.8773 173.901 39.722C173.901 41.7942 173.959 44.3548 174.075 47.4039C174.191 50.453 174.249 53.0136 174.249 55.0858C174.249 57.8684 174.147 60.3994 173.945 62.6788L187.631 62.5012C188.847 62.5012 189.861 62.9453 190.672 63.8333C191.512 64.6918 191.932 65.7575 191.932 67.0304C191.932 68.3329 191.512 69.4282 190.672 70.3163C189.861 71.1748 188.847 71.604 187.631 71.604C186.009 71.604 183.576 71.6484 180.332 71.7372C177.087 71.7964 174.654 71.826 173.032 71.826C171.121 71.826 168.253 72.0925 164.429 72.6253C160.635 73.1878 157.767 73.469 155.827 73.469C154.61 73.469 153.582 73.0249 152.742 72.1369C151.931 71.2784 151.525 70.2127 151.525 68.9398C151.525 67.6669 151.931 66.5864 152.742 65.6983C153.582 64.8102 154.61 64.3662 155.827 64.3662C157.71 64.3662 160.823 64.0554 165.168 63.4337C165.458 61.0359 165.603 58.2976 165.603 55.219C165.603 53.1764 165.501 50.6898 165.298 47.7591C165.125 44.7989 165.038 42.3122 165.038 40.2993C165.038 33.4611 165.443 24.9207 166.254 14.6782L160.606 14.8558L154.958 14.9891C153.712 14.9891 152.67 14.5598 151.83 13.7013C150.99 12.8429 150.57 11.7476 150.57 10.4155C150.57 7.66241 151.931 6.15268 154.654 5.88625C157 5.64943 161.388 5.53102 167.818 5.53102C173.583 5.53102 180.809 6.16748 189.499 7.44039C192.077 7.82522 193.366 9.40896 193.366 12.1916C193.366 13.5829 192.874 14.693 191.889 15.5219C191.02 16.2028 190.02 16.5432 188.891 16.5432Z" fill="black"/>
<path d="M236.703 22.0493C234.85 22.0493 233.459 20.9392 232.532 18.719C231.721 16.8244 230.968 15.6699 230.273 15.2555C229.665 14.9298 228.159 14.767 225.754 14.767C221.554 14.767 216.891 18.0529 211.764 24.6247C204.812 33.4463 201.337 41.809 201.337 49.7129C201.337 53.5316 202.539 56.8175 204.943 59.5706C207.405 62.4124 210.374 63.8333 213.85 63.8333C216.833 63.8333 219.831 63.0489 222.843 61.4799C224.523 60.5918 227.101 58.8453 230.577 56.2403C232.228 54.997 233.474 54.3753 234.314 54.3753C235.559 54.3753 236.602 54.8637 237.442 55.8406C238.282 56.7879 238.702 57.8536 238.702 59.0377C238.702 60.3698 238.152 61.5391 237.051 62.5456C229.404 69.4726 221.67 72.9361 213.85 72.9361C207.854 72.9361 202.785 70.5827 198.643 65.8759C194.646 61.3171 192.647 55.9294 192.647 49.7129C192.647 39.6776 196.76 29.3907 204.986 18.8522C211.851 10.0602 218.774 5.66423 225.754 5.66423C227.174 5.66423 228.448 5.73824 229.578 5.88625C230.708 6.00466 231.707 6.21188 232.576 6.50791C233.59 4.99818 234.908 4.24331 236.53 4.24331C238.528 4.24331 239.788 5.59023 240.31 8.28406C240.773 10.6819 241.005 13.6273 241.005 17.1204C241.005 18.3341 240.686 19.3998 240.049 20.3175C239.267 21.472 238.152 22.0493 236.703 22.0493Z" fill="black"/>
<path d="M271.455 73.6466C262.446 73.6466 255.726 70.9972 251.295 65.6983C247.703 61.4355 245.444 55.1302 244.517 46.7822C244.082 43.0227 243.865 35.5185 243.865 24.2695C243.865 20.1251 243.952 16.78 244.126 14.2342C244.299 11.5403 244.56 9.66058 244.908 8.59489C245.632 6.4339 246.935 5.35341 248.818 5.35341C251.483 5.35341 252.815 7.85483 252.815 12.8577V38.9227C252.815 56.8619 258.956 65.8315 271.237 65.8315C282.794 65.8315 288.573 50.7342 288.573 20.5395C288.573 19.4146 288.573 17.9641 288.573 16.188C288.544 14.4118 288.53 13.2277 288.53 12.6356C288.53 10.8003 288.848 9.18694 289.486 7.79562C290.297 6.01946 291.499 5.13139 293.092 5.13139C295.988 5.13139 297.437 7.15917 297.437 11.2147C297.437 12.4284 297.451 14.2638 297.48 16.7208C297.48 19.1778 297.48 21.0132 297.48 22.2269C297.48 56.5067 288.805 73.6466 271.455 73.6466Z" fill="black"/>
<path d="M341.043 70.0499C337.77 71.6188 332.628 73.0249 325.619 74.2682C319.159 75.4228 313.888 76 309.804 76C306.878 76 304.778 75.5412 303.504 74.6235C301.766 73.3802 300.897 71.1008 300.897 67.7853L301.766 53.0876C302.519 39.5296 302.895 24.4915 302.895 7.97324C302.895 6.70032 303.301 5.61983 304.112 4.73175C304.952 3.84367 305.98 3.39964 307.197 3.39964C308.442 3.39964 309.471 3.84367 310.282 4.73175C311.122 5.61983 311.542 6.70032 311.542 7.97324C311.542 24.6987 311.151 39.9144 310.368 53.6204L309.804 60.3698C309.572 62.8268 309.485 65.0026 309.543 66.8972C317.103 66.986 326.662 65.1655 338.219 61.4355C338.711 61.2875 339.175 61.2135 339.609 61.2135C340.855 61.2135 341.897 61.7167 342.737 62.7232C343.461 63.6409 343.824 64.6918 343.824 65.8759C343.824 67.7705 342.897 69.1618 341.043 70.0499Z" fill="black"/>
<path d="M393.6 73.2026C390.935 73.2026 388.617 69.7094 386.648 62.7232C385.895 60.059 384.953 55.3966 383.824 48.736C380.869 49.1504 377.002 49.8905 372.223 50.9562L360.666 53.3984C359.218 57.2764 356.741 62.9453 353.236 70.4051C352.309 72.0629 351.049 72.8917 349.456 72.8917C348.298 72.8917 347.255 72.4625 346.328 71.604C345.43 70.7455 344.981 69.6798 344.981 68.4069C344.981 66.986 347.168 61.5835 351.542 52.1995C351.049 51.4298 350.803 50.5418 350.803 49.5353C350.803 47.1375 352.222 45.5981 355.061 44.9173C358.363 38.5823 362.534 31.3001 367.574 23.0706C374.439 11.8512 378.711 6.24148 380.391 6.24148C382.68 6.24148 384.244 7.86963 385.084 11.1259L387.821 26.0456L394.295 56.9063L396.771 63.9221C397.611 66.32 398.031 67.9185 398.031 68.7178C398.031 69.9907 397.582 71.0564 396.684 71.9148C395.786 72.7733 394.758 73.2026 393.6 73.2026ZM378.262 22.4489L365.836 42.9191C369.341 42.0014 374.656 40.8913 381.782 39.5888L378.262 22.4489Z" fill="black"/>
<path d="M437.766 15.7883C436.388 15.7883 429.337 14.7648 425.776 14.8114H422.691C422.778 18.8966 423.169 25.5276 423.864 34.7044C424.502 43.2595 424.82 49.9053 424.82 54.6417C424.82 55.6778 424.922 57.2468 425.124 59.3485C425.327 61.4503 425.429 63.0341 425.429 64.0998C425.429 66.1127 425.11 67.8445 424.473 69.295C423.662 71.2488 422.402 72.2257 420.693 72.2257C419.534 72.2257 418.491 71.8112 417.564 70.9824C416.638 70.1535 416.174 69.0878 416.174 67.7853C416.174 67.3412 416.247 66.6752 416.391 65.7871C416.536 64.899 416.609 64.233 416.609 63.7889C416.609 62.3384 416.507 60.1626 416.304 57.2616C416.131 54.3605 416.044 52.1699 416.044 50.6898C416.044 46.4566 415.711 40.5065 415.044 32.8394C414.349 24.5507 413.958 18.6006 413.871 14.9891L409.918 15.0335C403.574 15.0335 398.592 14.5598 394.971 13.6125C392.625 12.9909 391.452 11.5255 391.452 9.21655C391.452 8.00284 391.829 6.93715 392.582 6.01946C393.451 4.98337 394.566 4.50973 395.927 4.59854C396.941 4.65775 399.258 4.92417 402.879 5.39781C405.775 5.75304 408.122 5.93066 409.918 5.93066C411.655 5.93066 414.291 5.90105 417.825 5.84185C421.359 5.75304 423.995 5.70864 425.733 5.70864C429.346 5.70864 436.183 6.68552 437.766 6.68552C439.011 6.68552 440.054 7.12956 440.894 8.01764C441.734 8.87612 442.154 9.95661 442.154 11.2591C442.154 12.532 441.734 13.6125 440.894 14.5006C440.054 15.3591 439.011 15.7883 437.766 15.7883Z" fill="black"/>
<path d="M482.243 16.5432C480.389 16.5432 478.058 16.3508 475.248 15.9659L468.253 15.0335C467.587 23.6478 467.254 31.8773 467.254 39.722C467.254 41.7942 467.311 44.3548 467.427 47.4039C467.543 50.453 467.601 53.0136 467.601 55.0858C467.601 57.8684 467.5 60.3994 467.297 62.6788L480.983 62.5012C482.2 62.5012 483.213 62.9453 484.025 63.8333C484.865 64.6918 485.285 65.7575 485.285 67.0304C485.285 68.3329 484.865 69.4282 484.025 70.3163C483.213 71.1748 482.2 71.604 480.983 71.604C479.361 71.604 476.928 71.6484 473.684 71.7372C470.44 71.7964 468.007 71.826 466.385 71.826C464.473 71.826 461.605 72.0925 457.782 72.6253C453.987 73.1878 451.12 73.469 449.179 73.469C447.962 73.469 446.934 73.0249 446.094 72.1369C445.283 71.2784 444.878 70.2127 444.878 68.9398C444.878 67.6669 445.283 66.5864 446.094 65.6983C446.934 64.8102 447.962 64.3662 449.179 64.3662C451.062 64.3662 454.176 64.0554 458.52 63.4337C458.81 61.0359 458.955 58.2976 458.955 55.219C458.955 53.1764 458.854 50.6898 458.651 47.7591C458.477 44.7989 458.39 42.3122 458.39 40.2993C458.39 33.4611 458.796 24.9207 459.607 14.6782L453.958 14.8558L448.31 14.9891C447.065 14.9891 446.022 14.5598 445.182 13.7013C444.342 12.8429 443.922 11.7476 443.922 10.4155C443.922 7.66241 445.283 6.15268 448.006 5.88625C450.352 5.64943 454.74 5.53102 461.171 5.53102C466.935 5.53102 474.162 6.16748 482.851 7.44039C485.429 7.82522 486.718 9.40896 486.718 12.1916C486.718 13.5829 486.226 14.693 485.241 15.5219C484.372 16.2028 483.373 16.5432 482.243 16.5432Z" fill="black"/>
<path d="M514.919 74.5791C506.751 74.5791 499.828 72.0777 494.151 67.0748C488.126 61.7464 485.114 54.8786 485.114 46.4714C485.114 36.2289 488.083 26.9189 494.021 18.5414C500.654 9.24615 508.923 4.59854 518.83 4.59854C528.359 4.59854 535.441 6.78913 540.076 11.1703C544.913 15.7291 547.332 22.9225 547.332 32.7506C547.332 42.9931 544.609 52.2291 539.163 60.4586C532.907 69.8723 524.825 74.5791 514.919 74.5791ZM518.83 13.7013C511.733 13.7013 505.723 17.3129 500.799 24.5359C496.251 31.1669 493.977 38.4787 493.977 46.4714C493.977 52.1847 496.048 56.8323 500.19 60.4142C504.159 63.7889 509.068 65.4763 514.919 65.4763C521.958 65.4763 527.765 61.85 532.342 54.5973C536.426 48.1144 538.468 40.8321 538.468 32.7506C538.468 25.6756 536.918 20.7024 533.819 17.8309C530.865 15.0779 525.868 13.7013 518.83 13.7013Z" fill="black"/>
<path d="M611.88 62.0128C611.88 63.4337 611.648 65.8019 611.185 69.1174C610.721 72.1073 609.172 73.6022 606.536 73.6022C604.943 73.6022 603.045 72.5365 600.844 70.4051C589.055 59.0081 575.528 42.5639 560.263 21.0724L560.046 31.1521L559.916 41.2762C559.916 43.7332 559.959 47.4187 560.046 52.3327C560.162 57.2468 560.22 60.9471 560.22 63.4337C560.22 71.3968 558.714 75.3783 555.701 75.3783C554.108 75.3783 552.848 74.8603 551.921 73.8242C551.081 72.9065 550.661 71.8112 550.661 70.5383C550.661 69.295 550.748 67.4152 550.922 64.899C551.125 62.3828 551.226 60.503 551.226 59.2597C551.226 57.4244 551.284 54.6861 551.4 51.045C551.516 47.3743 551.574 44.6212 551.574 42.7859C551.574 40.8321 551.53 37.8867 551.444 33.9495C551.357 29.9828 551.313 27.0225 551.313 25.0687C551.313 23.2038 551.139 20.4359 550.792 16.7652C550.444 13.0649 550.27 10.2822 550.27 8.41727C550.27 7.05556 550.835 5.81225 551.965 4.68735C553.123 3.56245 554.427 3 555.875 3C557.41 3 559.308 4.71695 561.567 8.15085C568.779 19.1926 575.268 28.3694 581.032 35.6813C587.897 44.3548 595.428 52.6436 603.625 60.5474C603.712 59.2745 603.712 57.3948 603.625 54.9082L603.494 49.3133C603.494 36.3177 603.002 25.9716 602.017 18.2749C601.901 17.5053 601.51 15.9511 600.844 13.6125C600.265 11.5996 599.975 10.0306 599.975 8.90572C599.975 5.47182 601.51 3.75487 604.581 3.75487C609.621 3.75487 612.141 13.3609 612.141 32.573C612.141 35.8589 612.097 40.7729 612.01 47.3151C611.923 53.8277 611.88 58.7269 611.88 62.0128Z" fill="black"/>
<path d="M615.427 60.8139C615.398 59.5706 615.804 58.5641 616.644 57.7944C617.513 56.9951 618.57 56.5955 619.815 56.5955C621.235 56.5955 622.48 57.4244 623.552 59.0821C625.029 61.3319 626.347 62.8564 627.506 63.6557C629.968 65.3135 633.545 66.1423 638.237 66.1423C642.727 66.1423 646.898 65.1507 650.75 63.1673C655.675 60.6215 658.137 57.0839 658.137 52.5547C658.137 48.8248 656.066 45.8794 651.923 43.7184C648.419 41.8534 644.088 40.8469 638.932 40.6989C634.356 40.5213 630.46 39.5 627.245 37.635C623.132 35.2372 621.075 31.8033 621.075 27.3333C621.075 22.0641 624.001 17.2536 629.852 12.9021C635.442 8.78731 641.221 6.72993 647.188 6.72993C649.997 6.72993 653.169 7.21837 656.703 8.19526C661.395 9.46817 663.741 11.0963 663.741 13.0797C663.741 15.6847 662.438 16.9872 659.831 16.9872C658.672 16.9872 656.645 16.6764 653.748 16.0547C650.852 15.4035 648.607 15.0927 647.014 15.1223C642.495 15.1815 638.657 16.3212 635.5 18.5414C632.256 20.8208 630.634 23.5886 630.634 26.8449C630.634 29.3019 632.777 31.0337 637.064 32.0401C638.657 32.425 641.742 32.7802 646.319 33.1058C652.952 33.6091 658.137 35.7405 661.873 39.5C665.291 42.9339 667 47.1227 667 52.0663C667 59.1117 663.814 64.7362 657.441 68.9398C651.909 72.5809 645.493 74.4015 638.194 74.4015C632.893 74.4015 628.041 73.3654 623.639 71.2932C618.251 68.7474 615.514 65.2543 615.427 60.8139Z" fill="black"/>
</svg>
